<svg xmlns="http://www.w3.org/2000/svg" viewBox="0 0 512 512" role="img" aria-labelledby="title">
  <title id="title">Two crossed old tennis racquets</title>
  <defs>
    <linearGradient id="wood" x1="0" x2="1" y1="0" y2="1">
      <stop offset="0" stop-color="#b97a3d" />
      <stop offset="0.52" stop-color="#7f4b25" />
      <stop offset="1" stop-color="#d29a58" />
    </linearGradient>
    <linearGradient id="leather" x1="0" x2="1" y1="0" y2="1">
      <stop offset="0" stop-color="#5b321f" />
      <stop offset="1" stop-color="#2f2019" />
    </linearGradient>
    <filter id="softShadow" x="-25%" y="-25%" width="150%" height="150%">
      <feDropShadow dx="0" dy="10" stdDeviation="12" flood-color="#0f241b" flood-opacity="0.24" />
    </filter>
  </defs>

  <rect width="512" height="512" rx="112" fill="#1f5d42" />
  <circle cx="256" cy="246" r="184" fill="#f6eedc" opacity="0.96" />
  <path
    d="M117 349c32 47 81 77 139 77s107-30 139-77"
    fill="none"
    stroke="#d9c69a"
    stroke-width="16"
    stroke-linecap="round"
    opacity="0.8"
  />

  <g filter="url(#softShadow)">
    <g transform="rotate(-36 256 256)">
      <rect x="235" y="278" width="42" height="155" rx="19" fill="url(#wood)" />
      <rect x="239" y="338" width="34" height="91" rx="14" fill="url(#leather)" />
      <path d="M227 260h58l-12 44h-34z" fill="#8c5429" />
      <ellipse
        cx="256"
        cy="169"
        rx="76"
        ry="112"
        fill="#f8f1df"
        stroke="url(#wood)"
        stroke-width="24"
      />
      <ellipse
        cx="256"
        cy="169"
        rx="52"
        ry="86"
        fill="none"
        stroke="#c99655"
        stroke-width="5"
      />
      <g stroke="#d7c5a0" stroke-width="4" stroke-linecap="round" opacity="0.9">
        <path d="M220 98v142" />
        <path d="M238 83v172" />
        <path d="M256 75v188" />
        <path d="M274 83v172" />
        <path d="M292 98v142" />
        <path d="M203 132h106" />
        <path d="M199 158h114" />
        <path d="M202 184h108" />
        <path d="M211 210h90" />
      </g>
    </g>

    <g transform="rotate(36 256 256)">
      <rect x="235" y="278" width="42" height="155" rx="19" fill="url(#wood)" />
      <rect x="239" y="338" width="34" height="91" rx="14" fill="url(#leather)" />
      <path d="M227 260h58l-12 44h-34z" fill="#8c5429" />
      <ellipse
        cx="256"
        cy="169"
        rx="76"
        ry="112"
        fill="#f8f1df"
        stroke="url(#wood)"
        stroke-width="24"
      />
      <ellipse
        cx="256"
        cy="169"
        rx="52"
        ry="86"
        fill="none"
        stroke="#c99655"
        stroke-width="5"
      />
      <g stroke="#d7c5a0" stroke-width="4" stroke-linecap="round" opacity="0.9">
        <path d="M220 98v142" />
        <path d="M238 83v172" />
        <path d="M256 75v188" />
        <path d="M274 83v172" />
        <path d="M292 98v142" />
        <path d="M203 132h106" />
        <path d="M199 158h114" />
        <path d="M202 184h108" />
        <path d="M211 210h90" />
      </g>
    </g>
  </g>
</svg>
